<?xml version="1.0" encoding="UTF-8"?>
<svg version="1.1" xmlns="http://www.w3.org/2000/svg" width="600" height="600">
<path d="M0 0 C0.66 0 1.32 0 2 0 C3.71394853 26.36937754 5.15635497 52.69899462 5.5 79.125 C5.78754128 99.47061001 6.32234266 119.79626278 7.1875 140.125 C7.21713963 140.82358124 7.24677925 141.52216248 7.27731705 142.24191284 C8.32749353 166.68479151 10.36171624 190.96266799 13.01831055 215.28173828 C13.14874756 216.4786731 13.27918457 217.67560791 13.41357422 218.90881348 C13.65733632 221.12078988 13.90632553 223.33219994 14.16186523 225.54284668 C14.81861233 231.40689941 15.11802372 237.09881424 15 243 C16.258125 243.20625 17.51625 243.4125 18.8125 243.625 C31.76720167 246.58491619 42.68565808 255.56811889 49.9375 266.5 C57 278.45192308 57 278.45192308 57 285 C57.97485352 285.04463379 58.94970703 285.08926758 59.95410156 285.13525391 C68.05967925 285.54106955 76.10761066 286.16987921 84.171875 287.0859375 C108.84080438 289.86281656 133.45471151 291.71203211 158.25 292.75 C158.98498844 292.78080406 159.71997688 292.81160812 160.4772377 292.84334564 C181.70628379 293.7246846 202.93040979 294.26603372 224.17645264 294.54208374 C249.82654285 294.88215374 275.40342958 296.37372927 301 298 C301 298.66 301 299.32 301 300 C296.95146791 300.26857296 292.90279607 300.53493668 288.85400391 300.79956055 C286.82838011 300.93236136 284.80285962 301.06673498 282.77734375 301.20117188 C278.51903409 301.48108179 274.2598956 301.74540276 270 302 C269.23773102 302.04564087 268.47546204 302.09128174 267.69009399 302.13830566 C254.9525935 302.88260569 242.23471237 303.16873982 229.47799683 303.32992554 C206.62251412 303.64300853 183.7765991 304.27866601 160.9375 305.1875 C160.19502895 305.21700619 159.45255791 305.24651237 158.68758774 305.27691269 C129.76427989 306.44207417 101.0416849 308.8976784 72.28089905 312.16186523 C67.1494472 312.73227773 62.16333868 313.14015036 57 313 C56.690625 314.8871875 56.690625 314.8871875 56.375 316.8125 C53.41508381 329.76720167 44.43188111 340.68565808 33.5 347.9375 C21.54807692 355 21.54807692 355 15 355 C15.03734253 356.86712646 15.03734253 356.86712646 15.07543945 358.77197266 C15.07191479 364.45193463 14.44454312 370.01173704 13.79296875 375.6484375 C13.53328581 378.00488475 13.27514051 380.36150182 13.01831055 382.71826172 C12.88242523 383.96218689 12.74653992 385.20611206 12.60653687 386.48773193 C10.04434074 410.25638816 8.20090297 433.98993775 7.1875 457.875 C7.15761868 458.57712616 7.12773735 459.27925232 7.09695053 460.00265503 C6.22463574 480.70692706 5.72709973 501.41122716 5.4576416 522.13232422 C5.12359815 547.4660267 3.64303559 572.7216296 2 598 C1.34 598 0.68 598 0 598 C-1.71394853 571.63062246 -3.15635497 545.30100538 -3.5 518.875 C-3.78754128 498.52938999 -4.32234266 478.20373722 -5.1875 457.875 C-5.21713963 457.17641876 -5.24677925 456.47783752 -5.27731705 455.75808716 C-6.32749353 431.31520849 -8.36171624 407.03733201 -11.01831055 382.71826172 C-11.14874756 381.5213269 -11.27918457 380.32439209 -11.41357422 379.09118652 C-11.65733632 376.87921012 -11.90632553 374.66780006 -12.16186523 372.45715332 C-12.81861233 366.59310059 -13.11802372 360.90118576 -13 355 C-14.8871875 354.690625 -14.8871875 354.690625 -16.8125 354.375 C-29.76720167 351.41508381 -40.68565808 342.43188111 -47.9375 331.5 C-55 319.54807692 -55 319.54807692 -55 313 C-55.97485352 312.95536621 -56.94970703 312.91073242 -57.95410156 312.86474609 C-66.05967925 312.45893045 -74.10761066 311.83012079 -82.171875 310.9140625 C-106.84080438 308.13718344 -131.45471151 306.28796789 -156.25 305.25 C-156.98498844 305.21919594 -157.71997688 305.18839188 -158.4772377 305.15665436 C-179.70628379 304.2753154 -200.93040979 303.73396628 -222.17645264 303.45791626 C-247.82654285 303.11784626 -273.40342958 301.62627073 -299 300 C-299 299.34 -299 298.68 -299 298 C-294.95146791 297.73142704 -290.90279607 297.46506332 -286.85400391 297.20043945 C-284.82838011 297.06763864 -282.80285962 296.93326502 -280.77734375 296.79882812 C-276.51903409 296.51891821 -272.2598956 296.25459724 -268 296 C-267.23773102 295.95435913 -266.47546204 295.90871826 -265.69009399 295.86169434 C-252.9525935 295.11739431 -240.23471237 294.83126018 -227.47799683 294.67007446 C-204.62251412 294.35699147 -181.7765991 293.72133399 -158.9375 292.8125 C-158.19502895 292.78299381 -157.45255791 292.75348763 -156.68758774 292.72308731 C-127.76427989 291.55792583 -99.0416849 289.1023216 -70.28089905 285.83813477 C-65.1494472 285.26772227 -60.16333868 284.85984964 -55 285 C-54.79375 283.741875 -54.5875 282.48375 -54.375 281.1875 C-51.41508381 268.23279833 -42.43188111 257.31434192 -31.5 250.0625 C-19.54807692 243 -19.54807692 243 -13 243 C-13.03734253 241.13287354 -13.03734253 241.13287354 -13.07543945 239.22802734 C-13.07191479 233.54806537 -12.44454312 227.98826296 -11.79296875 222.3515625 C-11.53328581 219.99511525 -11.27514051 217.63849818 -11.01831055 215.28173828 C-10.88242523 214.03781311 -10.74653992 212.79388794 -10.60653687 211.51226807 C-8.04434074 187.74361184 -6.20090297 164.01006225 -5.1875 140.125 C-5.15761868 139.42287384 -5.12773735 138.72074768 -5.09695053 137.99734497 C-4.22463574 117.29307294 -3.72709973 96.58877284 -3.4576416 75.86767578 C-3.12359815 50.5339733 -1.64303559 25.2783704 0 0 Z " fill="#F8D81E" transform="translate(299,1)"/>
<path d="M0 0 C9.05102792 7.14623975 14.55449001 16.21961551 16.69921875 27.640625 C17.38016278 34.1718301 16.92051172 39.20188673 15.0625 45.5 C13.81476852 50.40552711 13.81476852 50.40552711 15.546875 54.96484375 C17.92576461 57.56111465 20.45371036 59.88638295 23.0625 62.25 C24.53311217 63.97226772 25.97068007 65.72326373 27.375 67.5 C30.81295804 71.74372946 34.31536513 75.92105685 37.875 80.0625 C38.37918457 80.649104 38.88336914 81.23570801 39.40283203 81.84008789 C40.95511422 83.6442044 42.50857839 85.44729544 44.0625 87.25 C55.4867669 100.50329274 55.4867669 100.50329274 60.5 106.6875 C64.60229949 111.73933717 68.84951978 116.6530598 73.12255859 121.56005859 C77.10953759 126.14096638 81.05061681 130.75741507 84.96386719 135.40136719 C88.34731948 139.41384184 91.76350184 143.39710388 95.1875 147.375 C98.68073856 151.43620876 102.12698707 155.52518971 105.5 159.6875 C109.78399429 164.97161796 114.23595702 170.1004406 118.72241211 175.21264648 C119.25616455 175.82309814 119.78991699 176.4335498 120.33984375 177.0625 C120.81671631 177.60519531 121.29358887 178.14789062 121.78491211 178.70703125 C123.0625 180.25 123.0625 180.25 125.0625 183.25 C124.7325 184.24 124.4025 185.23 124.0625 186.25 C123.17949219 185.48816406 122.29648437 184.72632813 121.38671875 183.94140625 C115.84694107 179.17184013 110.30690145 174.41295193 104.625 169.8125 C99.57395932 165.71084729 94.66121604 161.46408989 89.75463867 157.19213867 C84.10005469 152.27133926 78.38786671 147.42226279 72.65527344 142.59277344 C69.95435188 140.31578561 67.25872756 138.03254206 64.5625 135.75 C63.47919135 134.83330416 62.39585804 133.91663747 61.3125 133 C50.47916667 123.83333333 39.64583333 114.66666667 28.8125 105.5 C28.27633057 105.04633057 27.74016113 104.59266113 27.18774414 104.12524414 C26.10354762 103.20782203 25.01940055 102.29034148 23.93530273 101.37280273 C21.24057689 99.09221456 18.54502188 96.81262185 15.84765625 94.53515625 C15.31664307 94.08543457 14.78562988 93.63571289 14.23852539 93.17236328 C13.16553537 92.26805787 12.08789307 91.36924305 11.00561523 90.47607422 C8.0650516 88.03257547 5.30172685 85.51701884 2.625 82.78515625 C-3.40003054 76.41998722 -3.40003054 76.41998722 -11.44140625 74.19921875 C-14.96179939 75.02240974 -14.96179939 75.02240974 -18.4296875 76.20703125 C-27.48598495 78.89971657 -36.81679328 76.66097814 -45.1875 72.75390625 C-55.63707616 67.03929429 -62.47073461 59.25440913 -66.375 47.9375 C-69.70664007 35.63495032 -68.61730839 23.6365873 -62.359375 12.421875 C-55.67811858 2.36989462 -46.2086339 -4.97692913 -34.1796875 -7.46484375 C-21.6851597 -9.05386906 -10.48374474 -7.20668786 0 0 Z " fill="#32589C" transform="translate(408.9375,348.75)"/>
<path d="M0 0 C8.69021676 6.6371882 15.02832539 15.57141791 17.27734375 26.4453125 C18.86636906 38.9398403 17.01918786 50.14125526 9.8125 60.625 C2.66626025 69.67602792 -6.40711551 75.17949001 -17.828125 77.32421875 C-24.37390279 78.00668213 -29.33066276 77.54425693 -35.625 75.625 C-39.86614875 74.57891309 -41.5524715 74.17319488 -45.375 76.39453125 C-48.22735803 79.0321521 -50.8185373 81.8194829 -53.4375 84.6875 C-55.15827311 86.15986075 -56.90862864 87.5983856 -58.6875 89 C-63.19117556 92.63510956 -67.57738302 96.38307347 -71.9375 100.1875 C-77.0696192 104.66302116 -82.26936004 109.02757718 -87.5625 113.3125 C-91.07297639 116.21245875 -94.50582727 119.19508138 -97.9375 122.1875 C-103.06977656 126.66284516 -108.26935274 131.02757126 -113.5625 135.3125 C-117.07297639 138.21245875 -120.50582727 141.19508138 -123.9375 144.1875 C-128.21966104 147.92154443 -132.52081268 151.61208646 -136.9375 155.1875 C-141.30696593 158.72715637 -145.57127234 162.37143919 -149.8125 166.0625 C-159.63027442 174.59893348 -159.63027442 174.59893348 -164.5625 178.8125 C-165.08247559 179.26157715 -165.60245117 179.7106543 -166.13818359 180.17333984 C-169.08500314 182.68116896 -172.06201279 184.79574343 -175.4375 186.6875 C-175.01595886 181.85734114 -172.70561121 179.37490049 -169.4375 176.0625 C-168.42341968 174.99703436 -167.41173633 173.92928272 -166.40234375 172.859375 C-165.89815918 172.32634766 -165.39397461 171.79332031 -164.87451172 171.24414062 C-162.81500723 169.01318572 -160.90525963 166.67572111 -159 164.3125 C-155.6081313 160.10585857 -152.14771873 155.97182912 -148.625 151.875 C-148.1206543 151.28823486 -147.61630859 150.70146973 -147.09667969 150.09692383 C-145.02464145 147.68862227 -142.95025573 145.28234795 -140.87597656 142.87597656 C-135.85588502 137.04914087 -130.84376351 131.22515352 -126 125.25 C-121.89770051 120.19816283 -117.65048022 115.2844402 -113.37744141 110.37744141 C-109.39046241 105.79653362 -105.44938319 101.18008493 -101.53613281 96.53613281 C-98.15268013 92.52365769 -94.73645508 88.54043359 -91.3125 84.5625 C-87.0609119 79.61865141 -82.87293282 74.6354641 -78.828125 69.51953125 C-76.98444497 67.33543317 -75.14357242 65.37896803 -73.109375 63.38671875 C-66.6659346 57.29605378 -66.6659346 57.29605378 -64.37890625 49.17578125 C-65.21176923 45.66268624 -65.21176923 45.66268624 -66.39453125 42.1953125 C-69.08721657 33.13901505 -66.84847814 23.80820672 -62.94140625 15.4375 C-57.22679429 4.98792384 -49.44190913 -1.84573461 -38.125 -5.75 C-24.7604489 -9.36923951 -11.62677472 -7.72797601 0 0 Z " fill="#32589C" transform="translate(241.4375,348.3125)"/>
<path d="M0 0 C0.33 0.99 0.66 1.98 1 3 C-0.4140625 5.171875 -0.4140625 5.171875 -2.625 7.75 C-3.45515625 8.72710937 -4.2853125 9.70421875 -5.140625 10.7109375 C-6.09285353 11.80807037 -7.04602292 12.90438718 -8 14 C-9.03674793 15.20027075 -10.07319686 16.40079982 -11.109375 17.6015625 C-13.31391061 20.15160739 -15.52463687 22.69614195 -17.73828125 25.23828125 C-21.16322456 29.17822338 -24.53745144 33.15932421 -27.90136719 37.15136719 C-31.28481948 41.16384184 -34.70100184 45.14710388 -38.125 49.125 C-41.61823856 53.18620876 -45.06448707 57.27518971 -48.4375 61.4375 C-52.53979949 66.48933717 -56.78701978 71.4030598 -61.06005859 76.31005859 C-65.04703759 80.89096638 -68.98811681 85.50741507 -72.90136719 90.15136719 C-76.28481987 94.16384231 -79.70104492 98.14706641 -83.125 102.125 C-87.3765881 107.06884859 -91.56456718 112.0520359 -95.609375 117.16796875 C-97.45305503 119.35206683 -99.29392758 121.30853197 -101.328125 123.30078125 C-107.7715654 129.39144622 -107.7715654 129.39144622 -110.05859375 137.51171875 C-109.22573077 141.02481376 -109.22573077 141.02481376 -108.04296875 144.4921875 C-105.35028343 153.54848495 -107.58902186 162.87929328 -111.49609375 171.25 C-117.21070571 181.69957616 -124.99559087 188.53323461 -136.3125 192.4375 C-148.61504968 195.76914007 -160.6134127 194.67980839 -171.828125 188.421875 C-181.88010538 181.74061858 -189.22692913 172.2711339 -191.71484375 160.2421875 C-193.30386906 147.7476597 -191.45668786 136.54624474 -184.25 126.0625 C-177.10376025 117.01147208 -168.03038449 111.50800999 -156.609375 109.36328125 C-150.06359721 108.68081787 -145.10683724 109.14324307 -138.8125 111.0625 C-134.57135125 112.10858691 -132.8850285 112.51430512 -129.0625 110.29296875 C-126.21014197 107.6553479 -123.6189627 104.8680171 -121 102 C-119.27922689 100.52763925 -117.52887136 99.0891144 -115.75 97.6875 C-111.24632444 94.05239044 -106.86011698 90.30442653 -102.5 86.5 C-97.3678808 82.02447884 -92.16813996 77.65992282 -86.875 73.375 C-83.36452361 70.47504125 -79.93167273 67.49241862 -76.5 64.5 C-71.36772344 60.02465484 -66.16814726 55.65992874 -60.875 51.375 C-57.36452361 48.47504125 -53.93167273 45.49241862 -50.5 42.5 C-46.21783896 38.76595557 -41.91668732 35.07541354 -37.5 31.5 C-32.47336198 27.42797573 -27.59024563 23.20620527 -22.71166992 18.95947266 C-18.43431737 15.23789723 -14.1379789 11.54055496 -9.8125 7.875 C-9.28414551 7.42592285 -8.75579102 6.9768457 -8.21142578 6.51416016 C-5.53595663 4.25203839 -2.82963692 2.06651288 0 0 Z " fill="#32589C" transform="translate(533,65)"/>
<path d="M0 0 C4.69998604 2.98047895 8.83416174 6.31779468 13 10 C14.32784323 11.16178046 15.65597501 12.32323119 16.984375 13.484375 C17.65275391 14.07025391 18.32113281 14.65613281 19.00976562 15.25976562 C22.07526188 17.94019464 25.15948897 20.59847958 28.25 23.25 C29.12217163 23.99842163 29.12217163 23.99842163 30.01196289 24.76196289 C33.44957488 27.70175072 36.92402517 30.58831583 40.4375 33.4375 C45.54307465 37.58060991 50.49800053 41.8823045 55.45288086 46.20288086 C59.08737851 49.36465838 62.75520843 52.46850206 66.5 55.5 C71.58809206 59.61893166 76.52003823 63.90147334 81.453125 68.203125 C85.08756499 71.36479231 88.75529818 74.46857472 92.5 77.5 C97.58363484 81.61532344 102.51180924 85.89351244 107.43994141 90.19213867 C112.05547485 94.20818329 116.73008522 98.12113548 121.53515625 101.91015625 C124 104 124 104 126.18359375 106.43359375 C128.38455942 108.82840594 130.09255453 110.52804877 133 112 C136.64295359 111.76280523 139.80859487 110.90295733 143.31640625 109.90234375 C153.70742727 107.35692927 163.79201585 109.96438367 173 115 C183.2336675 121.28411145 189.21827546 130.11770117 192.33984375 141.64453125 C194.77139826 154.00373434 192.69337313 165.89713232 185.6875 176.4375 C179.0503118 185.12771676 170.11608209 191.46582539 159.2421875 193.71484375 C146.7476597 195.30386906 135.54624474 193.45668786 125.0625 186.25 C116.01147208 179.10376025 110.50800999 170.03038449 108.36328125 158.609375 C107.68233722 152.0781699 108.14198828 147.04811327 110 140.75 C111.24773148 135.84447289 111.24773148 135.84447289 109.515625 131.28515625 C107.13673539 128.68888535 104.60878964 126.36361705 102 124 C100.52938783 122.27773228 99.09181993 120.52673627 97.6875 118.75 C94.24954196 114.50627054 90.74713487 110.32894315 87.1875 106.1875 C86.68331543 105.600896 86.17913086 105.01429199 85.65966797 104.40991211 C84.10738578 102.6057956 82.55392161 100.80270456 81 99 C69.5757331 85.74670726 69.5757331 85.74670726 64.5625 79.5625 C60.46020051 74.51066283 56.21298022 69.5969402 51.93994141 64.68994141 C47.95296241 60.10903362 44.01188319 55.49258493 40.09863281 50.84863281 C36.71518052 46.83615816 33.29899816 42.85289612 29.875 38.875 C26.38176144 34.81379124 22.93551293 30.72481029 19.5625 26.5625 C15.27850571 21.27838204 10.82654298 16.1495594 6.34008789 11.03735352 C5.80633545 10.42690186 5.27258301 9.8164502 4.72265625 9.1875 C4.24578369 8.64480469 3.76891113 8.10210937 3.27758789 7.54296875 C1.07324773 4.88074252 0 3.52360289 0 0 Z " fill="#32589C" transform="translate(66,65)"/>
<path d="M0 0 C0 9.24 0 18.48 0 28 C-9.10155212 27.55189295 -18.11800924 26.94253434 -27.171875 25.9140625 C-51.84080438 23.13718344 -76.45471151 21.28796789 -101.25 20.25 C-101.98498844 20.21919594 -102.71997688 20.18839188 -103.4772377 20.15665436 C-124.70628379 19.2753154 -145.93040979 18.73396628 -167.17645264 18.45791626 C-192.82654285 18.11784626 -218.40342958 16.62627073 -244 15 C-244 14.34 -244 13.68 -244 13 C-239.95146791 12.73142704 -235.90279607 12.46506332 -231.85400391 12.20043945 C-229.82838011 12.06763864 -227.80285962 11.93326502 -225.77734375 11.79882812 C-221.51903409 11.51891821 -217.2598956 11.25459724 -213 11 C-212.23773102 10.95435913 -211.47546204 10.90871826 -210.69009399 10.86169434 C-197.9525935 10.11739431 -185.23471237 9.83126018 -172.47799683 9.67007446 C-149.62251412 9.35699147 -126.7765991 8.72133399 -103.9375 7.8125 C-103.19502895 7.78299381 -102.45255791 7.75348763 -101.68758774 7.72308731 C-72.76427989 6.55792583 -44.0416849 4.1023216 -15.28089905 0.83813477 C-14.28650314 0.72759766 -13.29210724 0.61706055 -12.26757812 0.50317383 C-11.4136145 0.40563309 -10.55965088 0.30809235 -9.67980957 0.20759583 C-6.46210485 -0.04166893 -3.22734513 0 0 0 Z " fill="#31579C" transform="translate(244,286)"/>
<path d="M0 0 C9.10155212 0.44810705 18.11800924 1.05746566 27.171875 2.0859375 C51.84080438 4.86281656 76.45471151 6.71203211 101.25 7.75 C102.35248266 7.79620609 102.35248266 7.79620609 103.4772377 7.84334564 C124.70628379 8.7246846 145.93040979 9.26603372 167.17645264 9.54208374 C192.82654285 9.88215374 218.40342958 11.37372927 244 13 C244 13.66 244 14.32 244 15 C239.95146791 15.26857296 235.90279607 15.53493668 231.85400391 15.79956055 C229.82838011 15.93236136 227.80285962 16.06673498 225.77734375 16.20117188 C221.51903409 16.48108179 217.2598956 16.74540276 213 17 C212.23773102 17.04564087 211.47546204 17.09128174 210.69009399 17.13830566 C197.9525935 17.88260569 185.23471237 18.16873982 172.47799683 18.32992554 C149.62251412 18.64300853 126.7765991 19.27866601 103.9375 20.1875 C103.19502895 20.21700619 102.45255791 20.24651237 101.68758774 20.27691269 C72.76427989 21.44207417 44.0416849 23.8976784 15.28089905 27.16186523 C13.78930519 27.3276709 13.78930519 27.3276709 12.26757812 27.49682617 C11.4136145 27.59436691 10.55965088 27.69190765 9.67980957 27.79240417 C6.46210485 28.04166893 3.22734513 28 0 28 C0 18.76 0 9.52 0 0 Z " fill="#31579C" transform="translate(356,286)"/>
<path d="M0 0 C9.24 0 18.48 0 28 0 C28 10.11336534 28 10.11336534 27.49682617 14.46630859 C27.38628906 15.45328735 27.27575195 16.44026611 27.16186523 17.45715332 C27.04012939 18.5102771 26.91839355 19.56340088 26.79296875 20.6484375 C26.53328581 23.00488475 26.27514051 25.36150182 26.01831055 27.71826172 C25.88242523 28.96218689 25.74653992 30.20611206 25.60653687 31.48773193 C23.04434074 55.25638816 21.20090297 78.98993775 20.1875 102.875 C20.15761868 103.57712616 20.12773735 104.27925232 20.09695053 105.00265503 C19.22463574 125.70692706 18.72709973 146.41122716 18.4576416 167.13232422 C18.12359815 192.4660267 16.64303559 217.7216296 15 243 C14.34 243 13.68 243 13 243 C11.28605147 216.63062246 9.84364503 190.30100538 9.5 163.875 C9.21245872 143.52938999 8.67765734 123.20373722 7.8125 102.875 C7.78286037 102.17641876 7.75322075 101.47783752 7.72268295 100.75808716 C6.67250647 76.31520849 4.63828376 52.03733201 1.98168945 27.71826172 C1.85125244 26.5213269 1.72081543 25.32439209 1.58642578 24.09118652 C1.34266368 21.87921012 1.09367447 19.66780006 0.83813477 17.45715332 C0.72759766 16.47017456 0.61706055 15.4831958 0.50317383 14.46630859 C0.40563309 13.62248627 0.30809235 12.77866394 0.20759583 11.90927124 C-0.07499721 7.94898073 0 3.97036015 0 0 Z " fill="#32589C" transform="translate(286,356)"/>
<path d="M0 0 C0.66 0 1.32 0 2 0 C3.71394853 26.36937754 5.15635497 52.69899462 5.5 79.125 C5.78754128 99.47061001 6.32234266 119.79626278 7.1875 140.125 C7.21713963 140.82358124 7.24677925 141.52216248 7.27731705 142.24191284 C8.32749353 166.68479151 10.36171624 190.96266799 13.01831055 215.28173828 C13.14874756 216.4786731 13.27918457 217.67560791 13.41357422 218.90881348 C13.65733632 221.12078988 13.90632553 223.33219994 14.16186523 225.54284668 C14.27240234 226.52982544 14.38293945 227.5168042 14.49682617 228.53369141 C14.59436691 229.37751373 14.69190765 230.22133606 14.79240417 231.09072876 C15.07499721 235.05101927 15 239.02963985 15 243 C5.76 243 -3.48 243 -13 243 C-13 232.88663466 -13 232.88663466 -12.49682617 228.53369141 C-12.38628906 227.54671265 -12.27575195 226.55973389 -12.16186523 225.54284668 C-11.97926147 223.96316101 -11.97926147 223.96316101 -11.79296875 222.3515625 C-11.53328581 219.99511525 -11.27514051 217.63849818 -11.01831055 215.28173828 C-10.88242523 214.03781311 -10.74653992 212.79388794 -10.60653687 211.51226807 C-8.04434074 187.74361184 -6.20090297 164.01006225 -5.1875 140.125 C-5.15761868 139.42287384 -5.12773735 138.72074768 -5.09695053 137.99734497 C-4.22463574 117.29307294 -3.72709973 96.58877284 -3.4576416 75.86767578 C-3.12359815 50.5339733 -1.64303559 25.2783704 0 0 Z " fill="#32589C" transform="translate(299,1)"/>
<path d="M0 0 C4.35728241 1.58352544 6.82281165 4.97945443 9.6875 8.4375 C10.21931885 9.06857666 10.7511377 9.69965332 11.29907227 10.34985352 C15.1152049 14.89166565 18.85820357 19.49265213 22.59765625 24.09765625 C26.01607616 28.22755217 29.53766778 32.26472012 33.05786133 36.30786133 C37.98000517 41.96399021 42.83064755 47.67759591 47.66162109 53.41162109 C49.91767427 56.08908953 52.17706606 58.76372957 54.4375 61.4375 C54.88738281 61.96988281 55.33726562 62.50226563 55.80078125 63.05078125 C58.71275946 66.49221005 61.64371267 69.91671041 64.58398438 73.33398438 C68.59165256 77.99181926 72.56841613 82.66303636 76.4375 87.4375 C80.00051606 91.82522864 83.66509532 96.11179756 87.375 100.375 C93.31293469 107.19852238 99.19426245 114.06362423 105 121 C106.23556641 122.44826172 106.23556641 122.44826172 107.49609375 123.92578125 C108.23988281 124.81652344 108.98367188 125.70726562 109.75 126.625 C110.73226562 127.78902344 110.73226562 127.78902344 111.734375 128.9765625 C112.15203125 129.64429688 112.5696875 130.31203125 113 131 C112.67 131.99 112.34 132.98 112 134 C111.11699219 133.23816406 110.23398437 132.47632813 109.32421875 131.69140625 C103.78444107 126.92184013 98.24440145 122.16295193 92.5625 117.5625 C87.51145932 113.46084729 82.59871604 109.21408989 77.69213867 104.94213867 C72.03755469 100.02133926 66.32536671 95.17226279 60.59277344 90.34277344 C57.89185188 88.06578561 55.19622756 85.78254206 52.5 83.5 C51.41669135 82.58330416 50.33335804 81.66663747 49.25 80.75 C38.41666667 71.58333333 27.58333333 62.41666667 16.75 53.25 C16.21383057 52.79633057 15.67766113 52.34266113 15.12524414 51.87524414 C14.04104762 50.95782203 12.95690055 50.04034148 11.87280273 49.12280273 C9.17807689 46.84221456 6.48252188 44.56262185 3.78515625 42.28515625 C-4.17560742 35.56099266 -12.09566181 28.79038349 -20 22 C-18.80543256 18.41629769 -18.02536031 18.17601822 -14.875 16.3125 C-8.42105428 12.18115258 -3.60219921 6.78061028 0 0 Z " fill="#F8D81D" transform="translate(421,401)"/>
<path d="M0 0 C3.58370231 1.19456744 3.82398178 1.97463969 5.6875 5.125 C9.81884742 11.57894572 15.21938972 16.39780079 22 20 C20.70118388 22.91696199 19.41209595 24.7864651 16.98046875 26.84765625 C16.07530518 27.62326904 16.07530518 27.62326904 15.15185547 28.41455078 C14.50361816 28.95837402 13.85538086 29.50219727 13.1875 30.0625 C12.51605957 30.63468262 11.84461914 31.20686523 11.15283203 31.79638672 C9.10713745 33.53722891 7.05410286 35.26909339 5 37 C3.85760728 37.96950368 2.71564933 38.93952 1.57421875 39.91015625 C-1.08105488 42.16539168 -3.74293156 44.41266049 -6.40722656 46.65722656 C-9.10814812 48.93421439 -11.80377244 51.21745794 -14.5 53.5 C-15.58330865 54.41669584 -16.66664196 55.33336253 -17.75 56.25 C-18.28625 56.70375 -18.8225 57.1575 -19.375 57.625 C-63.25 94.75 -63.25 94.75 -64.87475586 96.12475586 C-65.95895238 97.04217797 -67.04309945 97.95965852 -68.12719727 98.87719727 C-70.82192311 101.15778544 -73.51747812 103.43737815 -76.21484375 105.71484375 C-77.28912479 106.6223221 -78.36334345 107.5298743 -79.4375 108.4375 C-79.96899658 108.88649658 -80.50049316 109.33549316 -81.0480957 109.7980957 C-84.51018132 112.72715235 -87.95290943 115.67778754 -91.38842773 118.63793945 C-97.49144012 123.89453053 -103.65808328 129.03167815 -110 134 C-110.33 133.01 -110.66 132.02 -111 131 C-109.5859375 128.828125 -109.5859375 128.828125 -107.375 126.25 C-106.12976563 124.78433594 -106.12976563 124.78433594 -104.859375 123.2890625 C-103.90714647 122.19192963 -102.95397708 121.09561282 -102 120 C-100.96325207 118.79972925 -99.92680314 117.59920018 -98.890625 116.3984375 C-96.68608939 113.84839261 -94.47536313 111.30385805 -92.26171875 108.76171875 C-88.83677544 104.82177662 -85.46254856 100.84067579 -82.09863281 96.84863281 C-78.71518052 92.83615816 -75.29899816 88.85289612 -71.875 84.875 C-68.38176144 80.81379124 -64.93551293 76.72481029 -61.5625 72.5625 C-57.46020051 67.51066283 -53.21298022 62.5969402 -48.93994141 57.68994141 C-44.95296241 53.10903362 -41.01188319 48.49258493 -37.09863281 43.84863281 C-33.71518013 39.83615769 -30.29895508 35.85293359 -26.875 31.875 C-22.63117109 26.94017398 -18.48087277 21.9405228 -14.37890625 16.88671875 C-9.67693778 11.18104601 -4.82955215 5.59770426 0 0 Z " fill="#F8D81D" transform="translate(177,401)"/>
<path d="M0 0 C0.33 0.99 0.66 1.98 1 3 C-0.4140625 5.171875 -0.4140625 5.171875 -2.625 7.75 C-3.45515625 8.72710937 -4.2853125 9.70421875 -5.140625 10.7109375 C-6.09285353 11.80807037 -7.04602292 12.90438718 -8 14 C-9.03674793 15.20027075 -10.07319686 16.40079982 -11.109375 17.6015625 C-13.31391061 20.15160739 -15.52463687 22.69614195 -17.73828125 25.23828125 C-21.16322456 29.17822338 -24.53745144 33.15932421 -27.90136719 37.15136719 C-31.28481948 41.16384184 -34.70100184 45.14710388 -38.125 49.125 C-41.61823856 53.18620876 -45.06448707 57.27518971 -48.4375 61.4375 C-52.53979949 66.48933717 -56.78701978 71.4030598 -61.06005859 76.31005859 C-65.04703759 80.89096638 -68.98811681 85.50741507 -72.90136719 90.15136719 C-76.28481987 94.16384231 -79.70104492 98.14706641 -83.125 102.125 C-86.63673961 106.20853502 -90.10384869 110.31917835 -93.5 114.5 C-97.10769326 118.92852623 -100.75146445 123.32407844 -104.4375 127.6875 C-104.95828125 128.31269531 -105.4790625 128.93789062 -106.015625 129.58203125 C-107.29977118 131.09319008 -108.64502208 132.55201268 -110 134 C-110.66 134 -111.32 134 -112 134 C-113.19140625 132.3125 -113.19140625 132.3125 -114.5625 130 C-119.02071607 123.07228189 -124.88279758 118.07769418 -132 114 C-130.70118388 111.08303801 -129.41209595 109.2135349 -126.98046875 107.15234375 C-126.37702637 106.63526855 -125.77358398 106.11819336 -125.15185547 105.58544922 C-124.50361816 105.04162598 -123.85538086 104.49780273 -123.1875 103.9375 C-122.51605957 103.36531738 -121.84461914 102.79313477 -121.15283203 102.20361328 C-119.10713745 100.46277109 -117.05410286 98.73090661 -115 97 C-113.85760728 96.03049632 -112.71564933 95.06048 -111.57421875 94.08984375 C-108.91894512 91.83460832 -106.25706844 89.58733951 -103.59277344 87.34277344 C-100.89185188 85.06578561 -98.19622756 82.78254206 -95.5 80.5 C-94.41669135 79.58330416 -93.33335804 78.66663747 -92.25 77.75 C-91.71375 77.29625 -91.1775 76.8425 -90.625 76.375 C-46.75 39.25 -46.75 39.25 -45.12524414 37.87524414 C-44.04104762 36.95782203 -42.95690055 36.04034148 -41.87280273 35.12280273 C-39.17807689 32.84221456 -36.48252188 30.56262185 -33.78515625 28.28515625 C-32.71087521 27.3776779 -31.63665655 26.4701257 -30.5625 25.5625 C-29.76525513 24.88900513 -29.76525513 24.88900513 -28.9519043 24.2019043 C-25.48981868 21.27284765 -22.04709057 18.32221246 -18.61157227 15.36206055 C-12.50855988 10.10546947 -6.34191672 4.96832185 0 0 Z " fill="#F8D81D" transform="translate(533,65)"/>
<path d="M0 0 C4.69998604 2.98047895 8.83416174 6.31779468 13 10 C14.32784323 11.16178046 15.65597501 12.32323119 16.984375 13.484375 C17.65275391 14.07025391 18.32113281 14.65613281 19.00976562 15.25976562 C22.07526188 17.94019464 25.15948897 20.59847958 28.25 23.25 C29.12217163 23.99842163 29.12217163 23.99842163 30.01196289 24.76196289 C33.44957488 27.70175072 36.92402517 30.58831583 40.4375 33.4375 C45.54307465 37.58060991 50.49800053 41.8823045 55.45288086 46.20288086 C59.08737851 49.36465838 62.75520843 52.46850206 66.5 55.5 C71.58809206 59.61893166 76.52003823 63.90147334 81.453125 68.203125 C85.08756499 71.36479231 88.75529818 74.46857472 92.5 77.5 C97.58363484 81.61532344 102.51180924 85.89351244 107.43994141 90.19213867 C111.20177407 93.46536548 115.00188487 96.67169655 118.875 99.8125 C122.35518782 102.64047871 125.80048789 105.49822666 129.1875 108.4375 C129.92355469 109.07558594 130.65960938 109.71367187 131.41796875 110.37109375 C133 112 133 112 133 114 C131.52138826 115.10077735 129.9895273 116.13040725 128.4375 117.125 C121.84190165 121.6092595 116.76190306 126.91877072 113 134 C108.64271759 132.41647456 106.17718835 129.02054557 103.3125 125.5625 C102.78068115 124.93142334 102.2488623 124.30034668 101.70092773 123.65014648 C97.8847951 119.10833435 94.14179643 114.50734787 90.40234375 109.90234375 C86.98392384 105.77244783 83.46233222 101.73527988 79.94213867 97.69213867 C75.01999483 92.03600979 70.16935245 86.32240409 65.33837891 80.58837891 C63.08232573 77.91091047 60.82293394 75.23627043 58.5625 72.5625 C57.88767578 71.76392578 57.88767578 71.76392578 57.19921875 70.94921875 C54.28724054 67.50778995 51.35628733 64.08328959 48.41601562 60.66601562 C44.40834744 56.00818074 40.43158387 51.33696364 36.5625 46.5625 C32.99948394 42.17477136 29.33490468 37.88820244 25.625 33.625 C19.68717184 26.80160004 13.80039809 19.94072403 8 13 C7.18789062 12.03449219 6.37578125 11.06898437 5.5390625 10.07421875 C4.43691406 8.73810547 4.43691406 8.73810547 3.3125 7.375 C2.66925781 6.59898438 2.02601562 5.82296875 1.36328125 5.0234375 C0 3 0 3 0 0 Z " fill="#F8D81D" transform="translate(66,65)"/>
<path d="M0 0 C4.89201236 4.00255556 8.84682657 9.45177406 10.8125 15.5 C11.50245722 24.69942956 10.81027188 31.93168026 4.8125 39.3125 C-0.95248432 45.35429985 -6.8904127 47.64165089 -15.19921875 48.08984375 C-22.93284246 47.84176377 -28.72487792 45.29302045 -34.30859375 39.96875 C-39.21566745 34.2570522 -41.33031616 27.70372212 -41.21875 20.21484375 C-40.53545366 13.29646827 -37.67874566 6.23011814 -32.3984375 1.59375 C-22.74200484 -5.72301836 -10.3591713 -6.51453041 0 0 Z " fill="#F8D81D" transform="translate(365,445)"/>
<path d="M0 0 C4.89201236 4.00255556 8.84682657 9.45177406 10.8125 15.5 C11.50245722 24.69942956 10.81027188 31.93168026 4.8125 39.3125 C-0.95248432 45.35429985 -6.8904127 47.64165089 -15.19921875 48.08984375 C-22.93284246 47.84176377 -28.72487792 45.29302045 -34.30859375 39.96875 C-39.21566745 34.2570522 -41.33031616 27.70372212 -41.21875 20.21484375 C-40.53545366 13.29646827 -37.67874566 6.23011814 -32.3984375 1.59375 C-22.74200484 -5.72301836 -10.3591713 -6.51453041 0 0 Z " fill="#F8D81D" transform="translate(265,445)"/>
<path d="M0 0 C6.00249204 5.33823236 9.19172767 11.08025897 10.27734375 19.03125 C10.65744326 26.69405604 7.81624118 34.113483 3 40 C-3.68874552 45.87304485 -10.12905355 47.48077134 -18.9609375 47.31640625 C-26.06018076 46.57728195 -31.48356346 43.52008911 -36 38 C-40.8861272 31.17052675 -42.81260902 25.52472859 -42 17 C-40.6504693 9.91805906 -37.40307284 4.74782942 -32 0 C-22.33420085 -6.3460465 -9.5728785 -7.00257074 0 0 Z " fill="#F8D81D" transform="translate(366,112)"/>
<path d="M0 0 C6.00249204 5.33823236 9.19172767 11.08025897 10.27734375 19.03125 C10.65744326 26.69405604 7.81624118 34.113483 3 40 C-3.68874552 45.87304485 -10.12905355 47.48077134 -18.9609375 47.31640625 C-26.06018076 46.57728195 -31.48356346 43.52008911 -36 38 C-40.8861272 31.17052675 -42.81260902 25.52472859 -42 17 C-40.6504693 9.91805906 -37.40307284 4.74782942 -32 0 C-22.33420085 -6.3460465 -9.5728785 -7.00257074 0 0 Z " fill="#F8D81D" transform="translate(266,112)"/>
<path d="M0 0 C6.0479201 5.76596578 8.54133798 12.14103903 8.875 20.4375 C8.54133798 28.73396097 6.0479201 35.10903422 0 40.875 C-5.43133362 45.03391707 -11.87932478 47.02595589 -18.7109375 46.7265625 C-26.5499514 45.61528467 -33.64787941 42.46617078 -38.5 36.0625 C-42.986934 29.20946576 -43.58929264 22.498854 -42.75 14.4375 C-40.37341398 5.88179032 -35.13609668 0.89303142 -27.65625 -3.55859375 C-18.95066803 -8.14329573 -7.55275387 -5.78334516 0 0 Z " fill="#F8D81D" transform="translate(483.75,329.5625)"/>
<path d="M0 0 C4.95032651 4.05026715 8.43662446 8.92191785 9.75 15.25 C10.6192769 24.5846966 9.50530699 31.66018035 3.5 39 C-4.01281104 45.14684539 -10.32307439 48.21239494 -20.25 47.25 C-27.8484946 45.70676013 -33.23179561 42.3990759 -37.79296875 36.12890625 C-41.89434025 29.13244898 -42.37112579 22.1981438 -41.25 14.25 C-39.16012918 7.40037934 -35.40542385 1.98766218 -29.25 -1.75 C-18.92951643 -6.64060753 -9.85713341 -5.30768722 0 0 Z " fill="#F8D81D" transform="translate(149.25,328.75)"/>
<path d="M0 0 C6.0479201 5.76596578 8.54133798 12.14103903 8.875 20.4375 C8.54133798 28.73396097 6.0479201 35.10903422 0 40.875 C-5.43133362 45.03391707 -11.87932478 47.02595589 -18.7109375 46.7265625 C-26.5499514 45.61528467 -33.64787941 42.46617078 -38.5 36.0625 C-42.986934 29.20946576 -43.58929264 22.498854 -42.75 14.4375 C-40.37341398 5.88179032 -35.13609668 0.89303142 -27.65625 -3.55859375 C-18.95066803 -8.14329573 -7.55275387 -5.78334516 0 0 Z " fill="#F8D81D" transform="translate(483.75,229.5625)"/>
<path d="M0 0 C4.95032651 4.05026715 8.43662446 8.92191785 9.75 15.25 C10.6192769 24.5846966 9.50530699 31.66018035 3.5 39 C-4.01281104 45.14684539 -10.32307439 48.21239494 -20.25 47.25 C-27.8484946 45.70676013 -33.23179561 42.3990759 -37.79296875 36.12890625 C-41.89434025 29.13244898 -42.37112579 22.1981438 -41.25 14.25 C-39.16012918 7.40037934 -35.40542385 1.98766218 -29.25 -1.75 C-18.92951643 -6.64060753 -9.85713341 -5.30768722 0 0 Z " fill="#F8D81D" transform="translate(149.25,228.75)"/>
</svg>
